<svg width="1343" height="449" viewBox="0 0 1343 449" fill="none" xmlns="http://www.w3.org/2000/svg">
<path d="M428 0H1343V449H428V0Z" fill="#2A4CAD"/>
<rect y="131" width="428" height="318" fill="#2A4CAD"/>
<path d="M428.934 129.912C427.715 130.888 426.203 131.399 424.797 132.03C424.77 132.042 424.709 132.05 424.721 132.078C424.754 132.15 424.878 132.05 424.954 132.025C425.311 131.906 425.651 131.736 425.993 131.578C426.039 131.557 426.086 131.535 426.133 131.515C426.206 131.482 426.155 131.51 426.117 131.54C425.957 131.664 425.799 131.803 425.666 131.957C425.209 132.485 426.776 131.105 427.276 130.618C427.435 130.464 427.589 130.261 427.786 130.148C427.932 130.065 427.525 130.36 427.398 130.471C427.163 130.676 426.934 130.896 426.682 131.082C426.481 131.23 426.731 131.052 426.804 131.012C427.009 130.903 427.219 130.828 427.398 130.682C427.573 130.539 427.746 130.413 427.886 130.233C428.112 129.943 428.226 129.566 428.382 129.236C428.611 128.751 428.934 128.259 428.934 127.716C428.934 127.498 428.934 127.281 428.934 127.064C428.934 126.954 428.94 126.731 428.838 126.952C428.766 127.11 428.647 127.245 428.605 127.421C428.578 127.537 428.507 127.7 428.446 127.802C428.308 128.031 428.166 128.274 427.997 128.474C427.869 128.625 427.774 128.785 427.623 128.923C427.46 129.072 427.315 129.248 427.153 129.403C427.004 129.547 426.853 129.677 426.679 129.797C426.541 129.892 426.372 129.975 426.247 130.086C426.099 130.219 425.775 130.445 425.57 130.469C425.443 130.484 425.309 130.569 425.193 130.626C425.093 130.674 424.989 130.685 424.896 130.734C424.794 130.789 424.621 130.84 424.507 130.862C424.382 130.885 424.268 130.96 424.138 130.973C424.007 130.987 423.887 131.094 423.769 131.111C423.658 131.127 423.534 131.177 423.433 131.225C423.286 131.294 423.106 131.352 422.945 131.366C422.766 131.381 422.612 131.476 422.422 131.476C421.912 131.476 421.402 131.476 420.892 131.476" stroke="#2A4CAD" stroke-linecap="round"/>
<path d="M428.571 128.907C428.401 128.939 428.215 129.126 428.067 129.217C427.868 129.341 427.704 129.503 427.495 129.611C427.157 129.786 426.818 129.965 426.477 130.136C425.82 130.464 425.252 130.964 424.578 131.253" stroke="#2A4CAD" stroke-linecap="round"/>
<path d="M428.878 126.087C428.71 126.256 428.707 126.562 428.543 126.745C428.448 126.851 428.408 127.057 428.346 127.19C428.154 127.607 427.844 127.95 427.58 128.331C427.374 128.629 427.112 128.903 426.824 129.124C426.696 129.223 426.447 129.361 426.367 129.493C426.318 129.575 426.179 129.613 426.1 129.661C425.965 129.743 425.831 129.802 425.708 129.894C425.539 130.019 425.322 130.071 425.165 130.207C425.096 130.267 424.922 130.319 424.836 130.353C424.716 130.4 424.595 130.432 424.479 130.486C424.235 130.6 423.993 130.732 423.728 130.784C423.489 130.831 423.196 130.886 422.974 130.987C422.564 131.174 422.098 131.276 421.659 131.392C421.255 131.499 420.871 131.588 420.45 131.588C419.853 131.588 419.256 131.588 418.659 131.588" stroke="#2A4CAD" stroke-linecap="round"/>
<path d="M428.324 126.139H428.372" stroke="#2A4CAD" stroke-linecap="round"/>
<path d="M428.419 126.139C428.419 126.458 428.13 126.796 428.03 127.097C427.905 127.471 427.582 127.805 427.435 128.166C427.322 128.443 427.034 128.799 426.824 129.013C426.311 129.539 425.784 130.047 425.197 130.498" stroke="#2A4CAD" stroke-linecap="round"/>
<path d="M427.502 127.05C427.555 126.838 427.707 126.654 427.798 126.458C427.825 126.399 427.873 126.425 427.899 126.375C427.937 126.303 427.925 126.212 427.961 126.139C428.021 126.02 428.065 125.957 428.092 125.821C428.113 125.717 428.114 125.633 428.169 125.54C428.219 125.453 428.306 125.377 428.339 125.283C428.368 125.201 428.357 125.132 428.405 125.049C428.43 125.004 428.477 124.944 428.48 124.891C428.485 124.784 428.559 124.722 428.609 124.629C428.679 124.498 428.597 124.975 428.581 125.045C428.521 125.31 428.451 125.545 428.296 125.766C428.148 125.978 427.986 126.184 427.839 126.398C427.774 126.491 427.72 126.592 427.639 126.673C427.513 126.799 427.597 126.397 427.605 126.362C427.643 126.202 427.723 126.114 427.805 125.978C427.854 125.897 427.946 125.798 427.871 125.956C427.755 126.198 427.584 126.381 427.442 126.604C427.375 126.709 427.183 126.889 427.164 127.016C427.137 127.208 426.989 127.407 426.876 127.558C426.706 127.785 426.499 127.938 426.295 128.123C426.113 128.29 425.953 128.478 425.755 128.628C425.693 128.675 425.494 128.797 425.568 128.77C425.874 128.657 426.176 128.485 426.467 128.339C426.517 128.314 426.57 128.253 426.516 128.328C426.438 128.436 426.365 128.547 426.273 128.644C426.096 128.83 425.914 128.974 425.684 129.077C425.597 129.116 424.823 129.403 424.858 129.313C424.942 129.095 425.246 128.851 425.411 128.684C425.564 128.527 425.712 128.37 425.86 128.206C425.941 128.117 426.079 127.934 426.19 127.878C426.396 127.775 426.543 127.638 426.707 127.473C426.782 127.399 426.828 127.24 426.921 127.192C426.988 127.157 426.979 127.08 427.031 127.031C427.101 126.967 427.17 126.904 427.239 126.84C427.318 126.767 427.498 126.721 427.535 126.609C427.555 126.551 427.728 126.389 427.689 126.45C427.405 126.892 427.069 127.236 426.634 127.52C426.337 127.714 426.011 127.955 425.768 128.215C425.627 128.367 425.529 128.555 425.396 128.71C425.197 128.941 424.89 129.055 424.642 129.223C424.448 129.356 424.265 129.517 424.078 129.662C423.85 129.838 423.629 129.886 423.349 129.95C423.152 129.996 422.951 130.089 422.752 130.115C422.343 130.17 421.88 130.316 421.521 130.516C421.143 130.727 420.781 130.951 420.37 131.095C419.85 131.278 419.305 131.42 418.766 131.536" stroke="#2A4CAD" stroke-linecap="round"/>
<path d="M425.891 129.239C425.57 129.346 425.265 129.548 424.958 129.686C424.475 129.904 424.38 129.931 423.901 130.134C423.707 130.216 423.168 130.321 423.345 130.435C423.53 130.552 424.219 130.286 424.394 130.242C424.828 130.132 425.246 130.015 425.683 129.933" stroke="#2A4CAD" stroke-linecap="round"/>
<path d="M424.294 129.567C423.962 129.741 423.695 130.016 423.331 130.14C423.317 130.145 423.302 130.155 423.289 130.149C423.258 130.137 423.342 130.109 423.37 130.09C423.525 129.989 423.672 129.878 423.821 129.766C423.857 129.74 423.968 129.696 423.925 129.682C423.83 129.653 423.68 129.685 423.584 129.695C423.518 129.701 423.219 129.806 423.401 129.745C423.519 129.705 423.856 129.539 423.737 129.578C423.504 129.656 423.314 129.796 423.13 129.953C422.995 130.068 422.543 130.328 422.654 130.19C422.77 130.045 422.99 129.916 423.155 129.832C423.213 129.802 423.176 129.769 423.128 129.762C422.806 129.712 422.558 129.855 422.26 129.963C422.12 130.013 421.977 130.052 421.838 130.103C421.718 130.147 421.624 130.228 421.505 130.277C421.295 130.363 421.078 130.434 420.86 130.492C420.77 130.516 420.733 130.516 420.664 130.571C420.369 130.805 419.981 130.926 419.64 131.074C419.404 131.176 419.165 131.298 418.92 131.376C418.65 131.462 417.82 131.658 418.095 131.588C418.308 131.534 418.494 131.473 418.716 131.473C418.902 131.473 419.055 131.462 419.232 131.395C419.448 131.313 419.569 131.244 419.699 131.071C419.785 130.957 420.082 130.865 420.219 130.814C420.394 130.749 420.548 130.722 420.725 130.671C421.241 130.522 421.744 130.415 422.236 130.184C422.4 130.107 422.535 130.002 422.714 129.95C422.821 129.919 422.915 129.885 423.021 129.847C423.615 129.636 424.154 129.393 424.721 129.124C425.023 128.98 424.724 129.12 424.609 129.175C424.498 129.227 424.4 129.289 424.287 129.334C424.14 129.391 423.993 129.446 423.846 129.502C423.71 129.553 423.588 129.639 423.438 129.65C423.354 129.656 423.118 129.73 423.186 129.679C423.409 129.512 423.7 129.448 423.939 129.307C424.07 129.231 424.217 129.2 424.341 129.106C424.483 129 424.626 128.9 424.777 128.804C424.885 128.736 424.943 128.643 425.065 128.586C425.17 128.537 425.264 128.492 425.337 128.403C425.465 128.247 425.595 128.088 425.727 127.933C425.884 127.747 426.066 127.544 426.201 127.341C426.382 127.071 426.743 126.938 426.955 126.695C427.173 126.444 427.366 126.165 427.601 125.924C427.715 125.808 427.807 125.657 427.875 125.51C427.911 125.432 427.997 125.369 428.048 125.297C428.08 125.251 428.089 125.178 428.119 125.141C428.285 124.943 428.351 124.697 428.554 124.523" stroke="#2A4CAD" stroke-linecap="round"/>
</svg>
